<svg xmlns="http://www.w3.org/2000/svg" version="1.1" xmlns:xlink="http://www.w3.org/1999/xlink" xmlns:svgjs="http://svgjs.dev/svgjs" width="1000" height="1000" viewBox="0 0 1000 1000"><rect width="1000" height="1000" fill="#000000"></rect><g transform="matrix(0.7,0,0,0.7,149.5757814581425,456.74834451459134)"><svg viewBox="0 0 396 49" data-background-color="#00784a" preserveAspectRatio="xMidYMid meet" height="123" width="1000" xmlns="http://www.w3.org/2000/svg" xmlns:xlink="http://www.w3.org/1999/xlink"><defs></defs><g id="tight-bounds" transform="matrix(1,0,0,1,0.2399864893936865,0.11476328437888128)"><svg viewBox="0 0 395.52 48.77047343124226" height="48.77047343124226" width="395.52"><g><svg viewBox="0 0 486.1285317143845 59.9431599922765" height="48.77047343124226" width="395.52"><g><rect width="4.965614535809508" height="59.9431599922765" x="72.64392624713652" y="0" fill="#ffffff" opacity="1" stroke-width="0" stroke="transparent" fill-opacity="1" class="rect-o-0" data-fill-palette-color="primary" rx="1%" id="o-0" data-palette-color="#fffafe"></rect></g><g transform="matrix(1,0,0,1,90.60853171438453,0.14911233828924253)"><svg viewBox="0 0 395.52 59.644935315698014" height="59.644935315698014" width="395.52"><g><svg viewBox="0 0 395.52 59.644935315698014" height="59.644935315698014" width="395.52"><g><svg viewBox="0 0 395.52 59.644935315698014" height="59.644935315698014" width="395.52"><g transform="matrix(1,0,0,1,0,0)"><svg width="395.52" viewBox="1.599996566772461 -35.75 258.9499816894531 36.04999923706055" height="59.644935315698014" data-palette-color="#fffafe"><svg></svg><g class="undefined-text-0" data-fill-palette-color="primary" id="text-0"><path d="M26.9-31.65l-1.7 2.8c-0.5-0.567-1.083-1.077-1.75-1.53-0.667-0.447-1.417-0.837-2.25-1.17-0.833-0.333-1.723-0.6-2.67-0.8-0.953-0.2-1.963-0.3-3.03-0.3v0c-3.1 0-5.373 0.59-6.82 1.77-1.453 1.187-2.18 2.797-2.18 4.83v0c0 1.4 0.343 2.5 1.03 3.3 0.68 0.8 1.753 1.45 3.22 1.95 1.467 0.5 3.333 1.017 5.6 1.55v0c2.533 0.533 4.717 1.167 6.55 1.9 1.833 0.733 3.25 1.723 4.25 2.97 1 1.253 1.5 2.947 1.5 5.08v0c0 1.633-0.317 3.05-0.95 4.25-0.633 1.2-1.517 2.2-2.65 3-1.133 0.8-2.483 1.39-4.05 1.77-1.567 0.387-3.283 0.58-5.15 0.58v0c-1.833 0-3.59-0.193-5.27-0.58-1.687-0.38-3.28-0.947-4.78-1.7-1.5-0.747-2.9-1.703-4.2-2.87v0l1.75-2.85c0.633 0.667 1.393 1.29 2.28 1.87 0.88 0.587 1.863 1.113 2.95 1.58 1.08 0.467 2.247 0.823 3.5 1.07 1.247 0.253 2.537 0.38 3.87 0.38v0c2.833 0 5.043-0.517 6.63-1.55 1.58-1.033 2.37-2.567 2.37-4.6v0c0-1.467-0.4-2.643-1.2-3.53-0.8-0.88-2-1.603-3.6-2.17-1.6-0.567-3.567-1.117-5.9-1.65v0c-2.467-0.567-4.55-1.2-6.25-1.9-1.7-0.7-2.977-1.627-3.83-2.78-0.847-1.147-1.27-2.67-1.27-4.57v0c0-2.2 0.543-4.06 1.63-5.58 1.08-1.513 2.57-2.663 4.47-3.45 1.9-0.78 4.083-1.17 6.55-1.17v0c1.567 0 3.027 0.16 4.38 0.48 1.347 0.313 2.597 0.77 3.75 1.37 1.147 0.6 2.22 1.35 3.22 2.25zM59.35-35.5h3.45v35.5h-3.45v-16.6h-21.05v16.6h-3.5v-35.5h3.5v15.8h21.05zM67.85 0l14.85-35.5h2.95l14.75 35.5h-3.7l-4.6-11.1h-15.95l-4.55 11.1zM76.9-13.85h14.4l-7.15-17.55zM109 0h-3.5v-35.5h15c1.533 0 2.933 0.317 4.2 0.95 1.267 0.633 2.377 1.49 3.33 2.57 0.947 1.087 1.68 2.287 2.2 3.6 0.513 1.32 0.77 2.663 0.77 4.03v0c0 1.7-0.323 3.3-0.97 4.8-0.653 1.5-1.57 2.767-2.75 3.8-1.187 1.033-2.58 1.717-4.18 2.05v0l8.7 13.7h-3.95l-8.35-13.1h-10.5zM109-32.4v16.2h11.6c1.4 0 2.617-0.383 3.65-1.15 1.033-0.767 1.833-1.777 2.4-3.03 0.567-1.247 0.85-2.57 0.85-3.97v0c0-1.433-0.323-2.76-0.97-3.98-0.653-1.213-1.52-2.197-2.6-2.95-1.087-0.747-2.297-1.12-3.63-1.12v0zM141.65-3.1h20.35v3.1h-23.85v-35.5h23.4v3.1h-19.9v12.8h17.35v2.95h-17.35zM172.1 0h-3.5v-35.5h15c1.533 0 2.933 0.317 4.2 0.95 1.267 0.633 2.377 1.49 3.33 2.57 0.947 1.087 1.68 2.287 2.2 3.6 0.513 1.32 0.77 2.663 0.77 4.03v0c0 1.7-0.323 3.3-0.97 4.8-0.653 1.5-1.57 2.767-2.75 3.8-1.187 1.033-2.58 1.717-4.18 2.05v0l8.7 13.7h-3.95l-8.35-13.1h-10.5zM172.1-32.4v16.2h11.6c1.4 0 2.617-0.383 3.65-1.15 1.033-0.767 1.833-1.777 2.4-3.03 0.567-1.247 0.85-2.57 0.85-3.97v0c0-1.433-0.323-2.76-0.97-3.98-0.653-1.213-1.52-2.197-2.6-2.95-1.087-0.747-2.297-1.12-3.63-1.12v0zM204.75-3.1h20.35v3.1h-23.85v-35.5h23.4v3.1h-19.9v12.8h17.35v2.95h-17.35zM227.9-35.5h3.65l12.7 31.15 12.65-31.15h3.65l-14.7 35.5h-3.2z" data-fill-palette-color="primary" fill="#ffffff" opacity="1"></path></g></svg></g></svg></g></svg></g></svg></g><g transform="matrix(1,0,0,1,0,0.14911233828924253)"><svg viewBox="0 0 59.644935315698014 59.644935315698014" height="59.644935315698014" width="59.644935315698014"><g><svg xmlns="http://www.w3.org/2000/svg" xmlns:xlink="http://www.w3.org/1999/xlink" version="1.1" x="0" y="0" viewBox="0 0 100 100" style="enable-background:new 0 0 100 100;" xml:space="preserve" height="59.644935315698014" width="59.644935315698014" class="icon-icon-0" data-fill-palette-color="accent" id="icon-0"><path d="M87.5 75c-3.039 0-5.725 1.221-7.886 3.016l-19.056-13.6c1.209-2.49 1.941-5.225 1.941-8.166 0-4.041-1.318-7.775-3.491-10.828l22.29-22.302C83.154 24.207 85.193 25 87.5 25c6.909 0 12.5-5.591 12.5-12.5S94.409 0 87.5 0 75 5.591 75 12.5c0 2.307 0.793 4.346 1.88 6.201L54.59 41.004c-3.076-2.197-6.787-3.504-10.84-3.504-7.153 0-13.306 4.064-16.467 9.973l-15.052-5.029C11.621 39.637 9.24 37.5 6.25 37.5 2.795 37.5 0 40.295 0 43.75S2.795 50 6.25 50c1.574 0 2.979-0.635 4.077-1.6l14.966 4.993C25.146 54.334 25 55.273 25 56.25 25 66.602 33.398 75 43.75 75c5.151 0 9.826-2.088 13.221-5.457l18.933 13.514C75.366 84.448 75 85.926 75 87.5c0 6.896 5.591 12.5 12.5 12.5S100 94.396 100 87.5 94.409 75 87.5 75z" fill="#ffffff" data-fill-palette-color="accent"></path></svg></g></svg></g></svg></g></svg><rect width="395.52" height="48.77047343124226" fill="none" stroke="none" visibility="hidden"></rect></g></svg></g></svg>